<svg width="25" height="25" viewBox="0 0 25 25" fill="none" xmlns="http://www.w3.org/2000/svg">
<rect x="0.787109" y="0.463379" width="24" height="24" rx="4" fill="black"/>
<path d="M8.08247 8.11914C8.85847 8.11914 9.53447 8.27114 10.1105 8.57514C10.6865 8.87914 11.1345 9.32714 11.4545 9.91914C11.7745 10.5111 11.9345 11.2271 11.9345 12.0671V16.6631H9.99047V14.6471H6.15047V16.6631H4.23047V12.0671C4.23047 11.2271 4.39047 10.5111 4.71047 9.91914C5.03047 9.32714 5.47847 8.87914 6.05447 8.57514C6.63047 8.27114 7.30647 8.11914 8.08247 8.11914ZM9.99047 13.0871V11.8871C9.99047 11.1911 9.81847 10.6671 9.47447 10.3151C9.13047 9.95514 8.66247 9.77514 8.07047 9.77514C7.47047 9.77514 6.99847 9.95514 6.65447 10.3151C6.31847 10.6671 6.15047 11.1911 6.15047 11.8871V13.0871H9.99047Z" fill="white"/>
<path d="M17.8733 16.8071C17.0173 16.8071 16.2413 16.6231 15.5452 16.2551C14.8572 15.8791 14.3133 15.3631 13.9132 14.7071C13.5212 14.0431 13.3253 13.2951 13.3253 12.4631C13.3253 11.6311 13.5212 10.8871 13.9132 10.2311C14.3133 9.56714 14.8572 9.05114 15.5452 8.68314C16.2413 8.30714 17.0213 8.11914 17.8853 8.11914C18.6133 8.11914 19.2693 8.24714 19.8533 8.50314C20.4453 8.75914 20.9413 9.12714 21.3413 9.60714L20.0933 10.7591C19.5252 10.1031 18.8213 9.77514 17.9813 9.77514C17.4613 9.77514 16.9973 9.89114 16.5893 10.1231C16.1813 10.3471 15.8613 10.6631 15.6293 11.0711C15.4053 11.4791 15.2933 11.9431 15.2933 12.4631C15.2933 12.9831 15.4053 13.4471 15.6293 13.8551C15.8613 14.2631 16.1813 14.5831 16.5893 14.8151C16.9973 15.0391 17.4613 15.1511 17.9813 15.1511C18.8213 15.1511 19.5252 14.8191 20.0933 14.1551L21.3413 15.3071C20.9413 15.7951 20.4453 16.1671 19.8533 16.4231C19.2613 16.6791 18.6012 16.8071 17.8733 16.8071Z" fill="white"/>
</svg>
